<svg t="1674636484114" class="icon" viewBox="0 0 1024 1024" version="1.1" xmlns="http://www.w3.org/2000/svg" p-id="3406" width="200" height="200"><path d="M920.9 552.1l28.3-51.5c15.7-28.5-8.7-62.7-40.7-56.7-98.4 18.3-209.8 28.6-327.8 28.6-116.4 0-226.4-10.1-323.9-27.9-33.6-6.2-59.1 29.6-42.7 59.5L317.6 692c28.9 52.6 84.2 85.3 144.3 85.3h261.5c45.4 0 87.3-24.7 109.2-64.5l30.2-54.9" fill="#FFF5C5" p-id="3407"></path><path d="M665.9 768H372.6c-73.7 0-141.6-40.1-177.1-104.7l-116-210.8c-11.8-21.5-10.3-47.3 4.1-67.2 14.3-19.8 38.1-29.4 62.1-25 112.4 20.6 233.6 31 360.3 31 128.3 0 251-10.7 364.6-31.8 23.2-4.3 46.2 4.9 60 24.1 13.9 19.3 15.5 44.2 4 65.1l-31.8 57.7c-4.6 8.4-15.2 11.5-23.6 6.9-8.4-4.6-11.5-15.2-6.9-23.6l31.8-57.7c5-9.1 4.3-19.5-1.7-27.9-6-8.3-15.5-12.1-25.5-10.2-115.7 21.5-240.5 32.4-370.9 32.4-128.7 0-252.1-10.6-366.5-31.6-10.9-2-21.2 2.2-27.7 11.1-6.5 9.1-7.2 20.3-1.8 30.1l116 210.8c29.4 53.5 85.6 86.7 146.6 86.7H666c44.6 0 85.8-24.3 107.3-63.4l33.9-61.5c4.6-8.4 15.2-11.5 23.6-6.9 8.4 4.6 11.5 15.2 6.9 23.6l-33.9 61.5C776 736.8 723.2 768 665.9 768z" fill="#E22B60" p-id="3408"></path><path d="M681.1 372.1c-7.1 0-13.8-4.4-16.3-11.5-8.1-22.4-29.7-46.5-57.9-64.7C575 275.3 537.7 264 501.7 264c-74.8 0-137.3 49.1-154.5 96.5-3.3 9-13.3 13.7-22.3 10.4-9-3.3-13.7-13.3-10.4-22.3 21.1-57.9 93.8-119.4 187.2-119.4 94.1 0 174.9 62 195.7 119.5 3.3 9-1.4 19-10.4 22.3-1.9 0.8-3.9 1.1-5.9 1.1zM856.1 578.7c-2.6 0-5.3-0.6-7.8-1.9-8.6-4.3-12-14.8-7.7-23.4l0.9-1.8c4.3-8.6 14.8-12 23.4-7.7 8.6 4.3 12 14.8 7.7 23.4l-0.9 1.8c-3.2 6.1-9.3 9.6-15.6 9.6z" fill="#E22B60" p-id="3409"></path></svg>